<?xml version="1.0" encoding="UTF-8" standalone="no"?>
<!-- Created with Inkscape (http://www.inkscape.org/) -->

<svg
   version="1.1"
   id="svg2"
   width="1821.3333"
   height="1024"
   viewBox="0 0 1821.3333 1024"
   sodipodi:docname="CI Logo  (1).ai"
   xmlns:inkscape="http://www.inkscape.org/namespaces/inkscape"
   xmlns:sodipodi="http://sodipodi.sourceforge.net/DTD/sodipodi-0.dtd"
   xmlns="http://www.w3.org/2000/svg"
   xmlns:svg="http://www.w3.org/2000/svg">
  <defs
     id="defs6">
    <clipPath
       clipPathUnits="userSpaceOnUse"
       id="clipPath16">
      <path
         d="M 0,768 H 1366 V 0 H 0 Z"
         id="path14" />
    </clipPath>
  </defs>
  <sodipodi:namedview
     id="namedview4"
     pagecolor="#ffffff"
     bordercolor="#000000"
     borderopacity="0.25"
     inkscape:showpageshadow="2"
     inkscape:pageopacity="0.0"
     inkscape:pagecheckerboard="0"
     inkscape:deskcolor="#d1d1d1" />
  <g
     id="g8"
     inkscape:groupmode="layer"
     inkscape:label="CI Logo  (1)"
     transform="matrix(1.3333333,0,0,-1.3333333,0,1024)">
    <g
       id="g10">
      <g
         id="g12"
         clip-path="url(#clipPath16)">
        <g
           id="g18"
           transform="translate(336.4375,247.8691)">
          <path
             d="m 0,0 c 10.754,0 18.526,-3.727 25.768,-9.903 0.851,-0.852 0.958,-2.129 0.106,-2.982 l -2.875,-2.875 c -0.852,-1.063 -1.704,-0.958 -2.769,0.108 -5.536,4.791 -13.096,7.986 -20.336,7.986 -16.824,0 -29.707,-14.162 -29.707,-30.665 0,-16.398 12.883,-30.559 29.707,-30.559 9.262,0 14.693,3.726 20.336,7.985 1.065,0.852 1.917,0.746 2.555,0.32 l 3.195,-2.875 c 0.852,-0.639 0.639,-2.129 -0.106,-2.875 C 18.633,-73.362 9.476,-76.662 0,-76.662 c -21.295,0 -38.438,16.929 -38.438,38.224 C -38.438,-17.144 -21.295,0 0,0"
             style="fill:#000000;fill-opacity:1;fill-rule:nonzero;stroke:none"
             id="path20" />
        </g>
        <g
           id="g22"
           transform="translate(393.7285,208.1533)">
          <path
             d="m 0,0 -25.661,35.563 c -0.852,1.384 0,3.087 1.703,3.087 h 5.005 c 0.745,0 1.385,-0.532 1.703,-0.958 L 4.259,7.985 25.767,37.692 c 0.319,0.426 0.959,0.958 1.703,0.958 h 5.005 c 1.704,0 2.555,-1.703 1.704,-3.087 L 8.199,0.106 v -33.965 c 0,-1.065 -0.959,-2.023 -2.024,-2.023 H 2.023 C 0.852,-35.882 0,-34.924 0,-33.859 Z"
             style="fill:#000000;fill-opacity:1;fill-rule:nonzero;stroke:none"
             id="path24" />
        </g>
        <g
           id="g26"
           transform="translate(464.2217,213.3701)">
          <path
             d="M 0,0 C 8.199,0 12.777,5.856 12.777,13.311 12.777,20.977 8.199,26.087 0,26.087 H -17.355 V 0 Z m 1.81,-33.965 c 7.773,0 13.417,5.856 13.417,13.522 0,7.56 -6.922,13.096 -15.227,13.096 H -17.568 V -33.965 Z M -25.34,31.41 c 0,1.066 0.851,2.024 2.022,2.024 H 0 c 12.991,0 21.828,-8.413 21.828,-19.592 0,-8.198 -5.43,-14.16 -10.434,-17.035 5.642,-2.343 12.776,-7.561 12.776,-17.357 0,-11.925 -9.476,-20.549 -23.212,-20.549 h -24.276 c -1.171,0 -2.022,0.958 -2.022,2.023 z"
             style="fill:#000000;fill-opacity:1;fill-rule:nonzero;stroke:none"
             id="path28" />
        </g>
        <g
           id="g30"
           transform="translate(538.2295,178.6592)">
          <path
             d="M 0,0 C 16.93,0 30.878,13.843 30.878,30.771 30.878,47.701 16.93,61.756 0,61.756 -16.929,61.756 -30.771,47.701 -30.771,30.771 -30.771,13.843 -16.929,0 0,0 M 0,69.21 C 21.295,69.21 38.331,52.066 38.331,30.771 38.331,9.477 21.295,-7.452 0,-7.452 c -21.295,0 -38.224,16.929 -38.224,38.223 0,21.295 16.929,38.439 38.224,38.439"
             style="fill:#000000;fill-opacity:1;fill-rule:nonzero;stroke:none"
             id="path32" />
        </g>
        <g
           id="g34"
           transform="translate(621.9292,208.4727)">
          <path
             d="M 0,0 C 8.2,0 15.333,6.814 15.333,15.546 15.333,23.637 8.2,30.559 0,30.559 H -20.656 V 0 Z m -29.066,36.308 c 0,1.065 0.851,2.023 2.023,2.023 H 0.532 c 12.779,0 23.213,-10.008 23.213,-22.679 0,-9.796 -6.495,-17.994 -15.759,-21.72 l 14.588,-27.046 c 0.744,-1.384 0,-3.087 -1.811,-3.087 h -5.43 c -0.958,0 -1.49,0.532 -1.704,0.958 L -0.532,-7.027 h -20.336 v -27.152 c 0,-1.064 -0.959,-2.022 -2.024,-2.022 h -4.151 c -1.172,0 -2.023,0.958 -2.023,2.022 z"
             style="fill:#000000;fill-opacity:1;fill-rule:nonzero;stroke:none"
             id="path36" />
        </g>
        <g
           id="g38"
           transform="translate(696.2578,247.8691)">
          <path
             d="m 0,0 c 10.755,0 18.526,-3.727 25.768,-9.903 0.852,-0.852 0.958,-2.129 0.105,-2.982 -0.957,-0.958 -2.128,-2.022 -2.98,-2.98 -0.959,-1.065 -1.596,-0.958 -2.768,0.105 -5.431,4.793 -13.097,8.306 -20.23,8.306 -16.824,0 -29.602,-14.055 -29.602,-30.559 0,-16.396 12.778,-30.77 29.602,-30.77 11.712,0 19.164,4.47 19.164,4.47 v 14.909 H 6.814 c -1.169,0 -2.021,0.851 -2.021,1.916 v 3.939 c 0,1.171 0.852,2.023 2.021,2.023 h 18.422 c 1.064,0 1.916,-0.958 1.916,-2.023 v -24.383 c 0,-0.532 -0.426,-1.383 -0.852,-1.704 0,0 -10.861,-7.026 -26.3,-7.026 -21.293,0 -38.437,16.929 -38.437,38.224 C -38.437,-17.144 -21.293,0 0,0"
             style="fill:#000000;fill-opacity:1;fill-rule:nonzero;stroke:none"
             id="path40" />
        </g>
        <g
           id="g42"
           transform="translate(740.0293,244.7803)">
          <path
             d="m 0,0 c 0,1.065 0.957,2.023 2.023,2.023 h 9.903 c 1.064,0 2.023,-0.958 2.023,-2.023 v -70.486 c 0,-1.065 -0.959,-2.023 -2.023,-2.023 H 2.023 C 0.957,-72.509 0,-71.551 0,-70.486 Z"
             style="fill:#000000;fill-opacity:1;fill-rule:nonzero;stroke:none"
             id="path44" />
        </g>
        <g
           id="g46"
           transform="translate(773.3584,245.9521)">
          <path
             d="m 0,0 c 0,1.065 0.959,1.917 2.023,1.917 h 2.662 l 44.294,-47.063 h 0.106 v 43.974 c 0,1.066 0.853,2.024 2.023,2.024 h 9.795 c 1.067,0 2.024,-0.958 2.024,-2.024 v -71.657 c 0,-1.065 -0.957,-1.916 -2.024,-1.916 h -2.555 l -44.506,48.871 h -0.108 v -45.784 c 0,-1.065 -0.849,-2.023 -2.021,-2.023 H 2.023 C 0.959,-73.681 0,-72.723 0,-71.658 Z"
             style="fill:#000000;fill-opacity:1;fill-rule:nonzero;stroke:none"
             id="path48" />
        </g>
        <g
           id="g50"
           transform="translate(865.6816,234.0264)">
          <path
             d="m 0,0 h -16.291 c -1.172,0 -2.023,0.958 -2.023,2.023 v 8.731 c 0,1.065 0.851,2.023 2.023,2.023 h 46.529 c 1.172,0 2.024,-0.958 2.024,-2.023 V 2.023 C 32.262,0.958 31.41,0 30.238,0 H 13.947 v -59.732 c 0,-1.065 -0.957,-2.023 -2.021,-2.023 H 2.021 C 0.958,-61.755 0,-60.797 0,-59.732 Z"
             style="fill:#000000;fill-opacity:1;fill-rule:nonzero;stroke:none"
             id="path52" />
        </g>
        <g
           id="g54"
           transform="translate(909.0234,216.3652)">
          <path
             d="m 0,0 v -42.071 c 0,-1.065 0.853,-2.023 2.023,-2.023 h 43.335 c 1.172,0 2.024,0.958 2.024,2.023 v 8.73 c 0,1.066 -0.852,2.024 -2.024,2.024 H 13.842 v 18.633 h 26.299 c 1.066,0 2.023,0.852 2.023,2.023 v 8.838 c 0,1.064 -0.957,2.022 -2.023,2.022 H 13.842 Z"
             style="fill:#000000;fill-opacity:1;fill-rule:nonzero;stroke:none"
             id="path56" />
        </g>
        <g
           id="g58"
           transform="translate(922.8652,234.0264)">
          <path
             d="m 0,0 h 31.517 c 1.171,0 2.023,0.958 2.023,2.023 v 8.731 c 0,1.065 -0.852,2.023 -2.023,2.023 h -43.335 c -1.171,0 -2.024,-0.958 -2.024,-2.023 V -0.094 Z"
             style="fill:#000000;fill-opacity:1;fill-rule:nonzero;stroke:none"
             id="path60" />
        </g>
        <g
           id="g62"
           transform="translate(971.6377,244.7803)">
          <path
             d="m 0,0 c 0,1.065 0.852,2.023 2.023,2.023 h 9.795 c 1.066,0 2.023,-0.958 2.023,-2.023 v -59.732 h 27.151 c 1.171,0 2.023,-0.958 2.023,-2.024 v -8.73 c 0,-1.065 -0.852,-2.023 -2.023,-2.023 H 2.023 C 0.852,-72.509 0,-71.551 0,-70.486 Z"
             style="fill:#000000;fill-opacity:1;fill-rule:nonzero;stroke:none"
             id="path64" />
        </g>
        <g
           id="g66"
           transform="translate(1025.4131,244.7803)">
          <path
             d="m 0,0 c 0,1.065 0.853,2.023 2.023,2.023 h 9.795 c 1.065,0 2.024,-0.958 2.024,-2.023 v -59.732 h 27.152 c 1.17,0 2.022,-0.958 2.022,-2.024 v -8.73 c 0,-1.065 -0.852,-2.023 -2.022,-2.023 H 2.023 c -1.17,0 -2.023,0.958 -2.023,2.023 z"
             style="fill:#000000;fill-opacity:1;fill-rule:nonzero;stroke:none"
             id="path68" />
        </g>
        <path
           d="M 842.891,324.911 H 781.744 V 591.08 h 61.147 z"
           style="fill:#69c2d2;fill-opacity:1;fill-rule:nonzero;stroke:none"
           id="path70" />
        <g
           id="g72"
           transform="translate(684.9658,449.0034)">
          <path
             d="m 0,0 c -4.597,-37.33 -35.721,-66.209 -73.46,-66.209 -40.906,0 -74.067,33.922 -74.067,75.768 0,41.846 33.161,75.769 74.067,75.769 38.121,0 69.502,-29.465 73.601,-67.344 H 63.84 C 59.483,90.041 -0.308,147.14 -73.46,147.14 c -75.984,0 -137.581,-61.597 -137.581,-137.581 0,-75.984 61.597,-137.581 137.581,-137.581 72.768,0 132.3,56.503 137.214,128.022 z"
             style="fill:#69c2d2;fill-opacity:1;fill-rule:nonzero;stroke:none"
             id="path74" />
        </g>
      </g>
    </g>
  </g>
</svg>
