<?xml version="1.0" encoding="utf-8"?>
<!-- Generator: Adobe Illustrator 25.0.1, SVG Export Plug-In . SVG Version: 6.00 Build 0)  -->
<svg version="1.1" id="Layer_1" xmlns="http://www.w3.org/2000/svg" xmlns:xlink="http://www.w3.org/1999/xlink" x="0px" y="0px"
	 viewBox="0 0 87 62" style="enable-background:new 0 0 87 62;" xml:space="preserve">
<style type="text/css">
	.st0{clip-path:url(#SVGID_2_);}
	.st1{fill:#69C2D2;}
</style>
<g id="g12">
	<g>
		<defs>
			<rect id="SVGID_1_" x="-51.2" y="-15.7" width="199.9" height="112.4"/>
		</defs>
		<clipPath id="SVGID_2_">
			<use xlink:href="#SVGID_1_"  style="overflow:visible;"/>
		</clipPath>
		<g class="st0">
			<g id="g14">
				<path id="path72" class="st1" d="M72.1,49.2h-9V10.2h9V49.2z"/>
				<g id="g74">
					<path id="path76" class="st1" d="M49,31c-0.7,6.1-6.2,10.4-12.3,9.7C30.6,40,26.3,34.5,27,28.4c0.7-6.1,6.2-10.4,12.3-9.7
						c5.1,0.6,9.1,4.6,9.7,9.7h9.3C57.6,17.3,48,8.9,36.9,9.6C25.8,10.3,17.4,19.9,18.2,31c0.7,11.1,10.3,19.5,21.4,18.8
						c10.1-0.7,18.1-8.7,18.8-18.8H49z"/>
				</g>
			</g>
		</g>
	</g>
</g>
</svg>
